<?xml version="1.0" encoding="utf-8"?>
<svg version="1.1" id="Layer_1" xmlns="http://www.w3.org/2000/svg" xmlns:xlink="http://www.w3.org/1999/xlink" x="0px" y="0px"
	 viewBox="0 0 233.2 223.6" style="enable-background:new 0 0 233.2 223.6;" xml:space="preserve" fill="black">
<path class="st9" d="M232.2,70.9c-0.4-1.3-1-2.6-1.7-3.8c-0.8-1.2-1.8-2.5-3.1-3.5c-2.4-2.1-5.5-3.4-8.7-4.3
	c-3.2-0.9-6.7-1.2-10.3-1.3c-7.1-0.2-14.7,0.9-22.7,2.5c-7.9,1.7-16.3,4-24.8,6.8c-15.7,5.2-32.3,12.1-49.2,20.4l-1.2-1.3
	c0.4-0.3,0.8-0.5,1.2-0.8c0,0,0,0,0,0c0.4-0.3,0.8-0.5,1.2-0.8c0.1-0.1,0.2-0.1,0.3-0.2c0.4-0.3,0.8-0.5,1.3-0.8
	c0.1-0.1,0.2-0.1,0.3-0.2c0.8-0.5,1.6-1,2.4-1.5c0.3-0.2,0.5-0.3,0.8-0.5c0.3-0.2,0.7-0.4,1.1-0.6c0.4-0.2,0.8-0.4,1.1-0.7
	c0.3-0.2,0.6-0.4,1-0.6c0.5-0.3,1.1-0.6,1.6-0.9c0.2-0.1,0.4-0.2,0.6-0.4c0.8-0.4,1.6-0.9,2.4-1.4c0.1-0.1,0.3-0.1,0.4-0.2
	c0.7-0.4,1.4-0.8,2.1-1.2c0.2-0.1,0.4-0.2,0.6-0.3c0.7-0.4,1.5-0.8,2.2-1.2c0.1-0.1,0.2-0.1,0.3-0.2c1.7-0.9,3.5-1.9,5.3-2.8
	c0.2-0.1,0.3-0.2,0.5-0.3c0.7-0.4,1.4-0.7,2.1-1.1c0.2-0.1,0.4-0.2,0.6-0.3c0.7-0.4,1.4-0.7,2.1-1c0.2-0.1,0.3-0.2,0.5-0.3
	c0.4-0.2,0.8-0.4,1.2-0.6c1.3-0.6,2.6-1.3,3.9-1.8v-8.2l-19.5-1.1l-3.2,6.7l-15.2-2.9l3.1-11.2l-4.6-7.6l-12.6,5.8l-21.4,1.5
	l-0.6,0.1c17.9-18.6,42.5-30.3,68.9-32.1c-49.9-3.4-96.6,28.9-109,78.4c-4,16-4,32.1-0.6,47.2c-4,4-7.5,8.1-10.5,12.2
	c-2.1,2.8-3.9,5.7-5.4,8.6c-1.5,2.9-2.6,5.9-3,9c-0.2,1.6-0.2,3.1,0.1,4.6c0.3,1.5,0.9,2.9,1.6,4.1c1.6,2.4,3.7,3.8,5.5,4.8
	c3.8,1.8,6.8,2.1,8.9,2.2c2,0.1,3.1-0.1,3.2-0.4c0.1-0.3-0.9-0.8-2.8-1.5c-1.8-0.7-4.6-1.7-7.4-3.6c-1.4-1-2.7-2.2-3.5-3.8
	c-0.4-0.8-0.6-1.7-0.7-2.6c-0.1-1,0-2,0.3-3.1c1-4.4,4.3-9.4,8.4-14.3c4-4.7,8.9-9.6,14.5-14.5c0.5-0.4,0.9-0.8,1.4-1.2
	c5.7-4.9,12-10,18.9-15c4.5-3.3,9.2-6.6,14.2-9.8L77,119l0.3,2.7l0.6,0.3l0,0l22.3,9.9l9,2l17.1,15.8l-5.2,4.7l-0.2,5.6l15.9,22.7
	l-11.9,37.8c0,0-0.1,0-0.1,0c-35.3-8.6-62-33.9-73.6-65.2c-0.7-2-2.9-8.1-3.6-13c-7.5,8-9.1,16-5.7,24.4c0.6,0.9,4.7,8.6,5.3,9.5
	c14,21.4,36,37.7,63.1,44.3c4.6,1.1,9.2,1.9,13.8,2.4l0,0l0.3,0c2.5,0.3,5,0.4,7.4,0.5l1.7,0.1l1.2-1.1l39.1-37l9.6-11.2v-17.9
	l-35.8-17.9l-10.3-2.1l-8.4,3.1l-11.2-1.8l-1.7-8.6l-7.3-10.9l-5.7,0.2l-2.9,4.3l-5.2,0.1l-5.6-7.2l-0.1-4.1l-2.6,0.4
	c3.6-2.2,7.2-4.2,11.1-6.3c4.3-2.4,8.8-4.7,13.4-7c18.2-9.2,36.1-16.9,52.6-22.9c8.3-3,16.2-5.5,23.7-7.4c7.5-1.9,14.6-3.2,21-3.5
	c3.2-0.1,6.2,0,8.9,0.5c2.7,0.5,5,1.3,6.8,2.6c3.7,2.4,4.8,6.6,5,10.1c0.2,3.5-0.2,6.4-0.3,8.3c-0.2,2-0.2,3,0.1,3.2
	c0.3,0.1,0.9-0.8,1.8-2.7c0.8-1.9,1.8-4.8,2.2-8.8C233,75.9,232.9,73.5,232.2,70.9z M57.1,121.2c-4.1,3.2-8,6.4-11.7,9.6
	c-1.2-11.6-0.5-23.6,2.5-35.5c0.6-2.5,1.4-5,2.2-7.4l3.5,8.3l11.6,7.7l5.7,7.3C66,114.4,61.4,117.8,57.1,121.2z"/>
</svg>
